<svg width="96.000000" height="96.000000" viewBox="0 0 96 96" fill="none" xmlns="http://www.w3.org/2000/svg" xmlns:xlink="http://www.w3.org/1999/xlink">
	<defs>
		<clipPath id="clip2_1">
			<rect id="Custom" rx="37.000000" width="96.000000" height="96.000000" transform="translate(0.000000 0.000004)" fill="white" fill-opacity="0"/>
		</clipPath>
		<linearGradient x1="48.000000" y1="5.000004" x2="48.000000" y2="74.000000" id="paint_linear_2_2_0" gradientUnits="userSpaceOnUse">
			<stop offset="0.007246" stop-color="#6C65A5"/>
			<stop offset="1.000000" stop-color="#3500FF" stop-opacity="0.000000"/>
		</linearGradient>
		<linearGradient x1="126.000000" y1="110.000000" x2="126.000000" y2="148.000000" id="paint_linear_2_4_0" gradientUnits="userSpaceOnUse">
			<stop stop-color="#2913B0" stop-opacity="0.000000"/>
			<stop offset="1.000000" stop-color="#3654C8" stop-opacity="0.643137"/>
			<stop offset="1.000000" stop-color="#4394E0"/>
		</linearGradient>
	</defs>
	<rect id="Custom" rx="37.000000" width="96.000000" height="96.000000" transform="translate(0.000000 0.000004)" fill="#E5DAFF" fill-opacity="1.000000"/>
	<g clip-path="url(#clip2_1)">
		<path id="IRU" d="M52.62 39.23Q53.28 37.73 53.35 35.92Q53.44 33.09 52.69 30.98Q51.94 28.87 50.62 27.38Q49.96 26.64 49.2 26.04Q48.43 25.42 47.55 24.93Q45.8 23.97 43.94 23.43Q42.08 22.89 40.23 22.68Q38.37 22.47 36.85 22.47Q35.05 22.52 33.12 22.68Q31.46 22.85 29.44 23.15Q27.43 23.46 25.41 24.07L25.41 57.23L30.36 57.04L30.26 47.1Q31.79 47.39 33.18 47.49Q34.58 47.6 35.75 47.6Q37.2 47.6 38.41 47.46Q39.62 47.32 40.74 47.1L47.3 58.05L52.16 56.46L45.33 45.72Q46.95 45.04 48.38 44.09Q49.81 43.14 50.89 41.94Q51.3 41.47 51.65 40.97Q52.22 40.15 52.62 39.23ZM85.24 45.22Q85.58 43.1 85.55 40.92Q85.48 38.71 85.25 36Q85.04 33.65 84.64 30.45Q84.24 27.25 83.49 23.39L78.5 24.07Q79.2 27.46 79.6 30.49Q80 33.51 80.19 35.85Q80.42 38.57 80.47 40.92Q80.51 43.85 79.94 46.21Q79.37 48.58 78.26 50.25Q77.23 51.81 75.77 52.69Q75.68 52.75 75.59 52.8Q75.25 52.99 74.89 53.15Q73.6 53.69 72.08 53.69Q70.2 53.69 68.84 52.94Q68.13 52.55 67.54 52.03Q66.99 51.55 66.55 50.96Q65.61 49.73 65.03 48.15Q64.46 46.57 64.14 44.89Q63.83 43.21 63.72 41.6Q63.62 39.98 63.62 38.67Q63.62 37.54 63.67 35.97Q63.73 34.4 63.92 32.5Q64.11 30.6 64.44 28.45Q64.76 26.29 65.3 23.97L60.22 23.25Q59.56 26.81 59.25 29.95Q58.93 33.09 58.81 35.46Q58.67 38.22 58.72 40.54Q58.76 42.37 59.05 44.37Q59.16 45.16 59.31 45.94Q59.55 47.14 59.9 48.32Q60.39 49.98 61.15 51.49Q61.28 51.76 61.42 52.03Q62.2 53.46 63.26 54.62Q63.51 54.88 63.77 55.13Q63.99 55.35 64.23 55.55Q65.46 56.61 67.04 57.26Q68.91 58.05 71.4 58.05Q73.86 58.05 75.89 57.39Q77.91 56.74 79.5 55.55Q80.24 54.99 80.9 54.34Q81.62 53.61 82.24 52.76Q83.4 51.16 84.15 49.25Q84.9 47.34 85.24 45.22ZM12.08 56.17L16.79 56.17L16.48 23.78L11.26 23.6L12.08 56.17ZM34.62 27.28Q35.77 27.18 36.85 27.18Q39.41 27.18 41.55 27.7Q43.69 28.21 45.24 29.19Q46.75 30.13 47.6 31.49Q47.62 31.53 47.64 31.57Q47.81 31.84 47.94 32.12Q48.5 33.32 48.5 34.78Q48.5 35.37 48.38 35.93Q48.13 37.06 47.37 38.09Q46.25 39.63 44.35 40.75Q42.45 41.88 39.93 42.52Q37.41 43.17 34.6 43.17Q33.55 43.17 32.43 43.08Q32.27 43.07 32.1 43.06Q31.16 42.97 30.22 42.79L30.12 27.86Q31.25 27.6 32.44 27.48Q33.64 27.35 34.62 27.28Z" fill="url(#paint_linear_2_2_0)" fill-opacity="1.000000" fill-rule="evenodd"/>
		<path id="Rectangle 1" d="M87 110L9 110L9 87C9 78.71 15.71 72 24 72L72 72C80.28 72 87 78.71 87 87L87 110Z" fill="url(#paint_linear_2_4_0)" fill-opacity="1.000000" fill-rule="evenodd"/>
	</g>
</svg>
