<svg width="320.000000" height="320.000000" viewBox="0 0 320 320" fill="none" xmlns="http://www.w3.org/2000/svg" xmlns:xlink="http://www.w3.org/1999/xlink">
	<defs>
		<clipPath id="clip2_2">
			<rect id="Warning file" width="64.000000" height="64.000000" transform="translate(128.000000 104.000000)" fill="white" fill-opacity="0"/>
		</clipPath>
		<clipPath id="clip2_1">
			<rect id="Frame 1" rx="4.500000" width="319.000000" height="319.000000" transform="translate(0.500000 0.500000)" fill="white" fill-opacity="0"/>
		</clipPath>
	</defs>
	<rect id="Frame 1" rx="4.500000" width="319.000000" height="319.000000" transform="translate(0.500000 0.500000)" fill="#212121" fill-opacity="1.000000"/>
	<g clip-path="url(#clip2_1)">
		<g clip-path="url(#clip2_2)">
			<path id="path" d="M141.33 162.66L178.66 162.66C180.13 162.66 181.33 161.47 181.33 160L181.33 122.66L168 122.66L168 109.33L141.33 109.33C139.86 109.33 138.66 110.52 138.66 112L138.66 160C138.66 161.47 139.86 162.66 141.33 162.66Z" fill="#000000" fill-opacity="0" fill-rule="nonzero"/>
			<path id="path" d="M178.66 162.66C180.13 162.66 181.33 161.47 181.33 160L181.33 122.66L168 122.66L168 109.33L141.33 109.33C139.86 109.33 138.66 110.52 138.66 112L138.66 160C138.66 161.47 139.86 162.66 141.33 162.66L178.66 162.66Z" stroke="#808080" stroke-opacity="1.000000" stroke-width="1.500000" stroke-linejoin="round"/>
			<path id="path" d="M167.49 109.86L167.47 109.86C167.17 109.56 167.17 109.1 167.47 108.8C167.76 108.5 168.23 108.5 168.53 108.8L168.53 108.83L167.49 109.86ZM181.83 122.13L181.86 122.13C182.16 122.43 182.16 122.9 181.86 123.19C181.56 123.49 181.1 123.49 180.8 123.19L180.8 123.16L181.83 122.13Z" fill="#000000" fill-opacity="0" fill-rule="nonzero"/>
			<path id="path" d="M168 109.33L181.33 122.66" stroke="#808080" stroke-opacity="1.000000" stroke-width="1.500000" stroke-linejoin="round" stroke-linecap="round"/>
			<path id="path" d="M159.27 129.35L159.25 129.33C159.25 128.91 159.58 128.58 160 128.58C160.42 128.58 160.75 128.91 160.75 129.33L160.73 129.35L159.27 129.35ZM160.73 142.64L160.75 142.66C160.75 143.08 160.42 143.41 160 143.41C159.58 143.41 159.25 143.08 159.25 142.66L159.27 142.64L160.73 142.64Z" fill="#000000" fill-opacity="0" fill-rule="nonzero"/>
			<path id="path" d="M160 129.33L160 142.66" stroke="#808080" stroke-opacity="1.000000" stroke-width="1.500000" stroke-linejoin="round" stroke-linecap="round"/>
			<path id="path" d="M160 156C161.84 156 163.33 154.5 163.33 152.66C163.33 150.82 161.84 149.33 160 149.33C158.15 149.33 156.66 150.82 156.66 152.66C156.66 154.5 158.15 156 160 156Z" fill="#808080" fill-opacity="1.000000" fill-rule="evenodd"/>
		</g>
		<path id="File Not Found" d="M127.28 211L128.94 211L128.94 200.5L127.28 200.5L127.28 211ZM199.36 204.5Q198.57 205.53 198.57 207.24Q198.57 209.04 199.37 210.09Q199.79 210.63 200.34 210.89Q200.85 211.13 201.48 211.13Q202.2 211.13 202.76 210.82Q203.16 210.61 203.47 210.23L203.55 211L205.05 211L205.05 200.5L203.39 200.5L203.39 204.28Q203.1 203.96 202.75 203.76Q202.2 203.46 201.49 203.46Q200.79 203.46 200.23 203.75Q199.74 204.01 199.36 204.5ZM123.71 201.23Q123.6 201.43 123.6 201.68Q123.6 201.92 123.7 202.1Q123.76 202.21 123.84 202.3Q123.87 202.33 123.9 202.36Q124.14 202.55 124.54 202.55Q124.94 202.55 125.18 202.36Q125.21 202.33 125.24 202.3Q125.33 202.21 125.39 202.1Q125.48 201.91 125.48 201.68Q125.48 201.43 125.38 201.24Q125.32 201.13 125.24 201.04Q125.2 201.01 125.17 200.98Q124.93 200.79 124.54 200.79Q124.14 200.79 123.91 200.98Q123.87 201.01 123.84 201.04Q123.76 201.13 123.71 201.23ZM117.8 206.78L121.8 206.78L121.8 205.4L117.8 205.4L117.8 202.44L122.39 202.44L122.39 201.04L116.07 201.04L116.07 211L117.8 211L117.8 206.78ZM148.07 211L149.8 211L149.8 201.04L148.09 201.04L148.09 208.13L143.64 201.04L141.91 201.04L141.91 211L143.64 211L143.64 203.93L148.07 211ZM169.69 206.78L173.7 206.78L173.7 205.4L169.69 205.4L169.69 202.44L174.28 202.44L174.28 201.04L167.96 201.04L167.96 211L169.69 211L169.69 206.78ZM161.74 203.6L161.74 201.8L160.08 201.8L160.08 203.6L158.86 203.6L158.86 204.83L160.08 204.83L160.08 209.02Q160.08 210.18 160.66 210.7Q161.13 211.13 161.99 211.13Q162.52 211.13 163.09 210.97L163.09 209.69Q162.79 209.76 162.5 209.76Q162.07 209.76 161.91 209.57Q161.74 209.38 161.74 208.96L161.74 204.83L163.05 204.83L163.05 203.6L161.74 203.6ZM132.09 210.64Q132.9 211.13 134.01 211.13Q134.93 211.13 135.67 210.77Q136.14 210.54 136.49 210.19Q136.69 209.98 136.86 209.74L135.96 208.88Q135.58 209.37 135.08 209.6Q134.64 209.81 134.1 209.81Q133.59 209.81 133.19 209.6Q132.95 209.47 132.75 209.27Q132.69 209.21 132.63 209.14Q132.21 208.63 132.14 207.82L136.97 207.82L136.97 207.15Q136.97 205.39 136.15 204.43Q135.94 204.18 135.68 203.99Q134.93 203.46 133.81 203.46Q133.21 203.46 132.68 203.66Q132.38 203.77 132.09 203.95Q131.86 204.09 131.67 204.27Q131.19 204.69 130.89 205.3Q130.47 206.18 130.47 207.28L130.47 207.49Q130.47 208.78 131.06 209.67Q131.23 209.92 131.45 210.14Q131.74 210.43 132.09 210.64ZM151.81 205.27Q151.38 206.14 151.38 207.23L151.38 207.31Q151.38 208.84 152.11 209.84Q152.21 209.97 152.32 210.09Q152.63 210.44 153.02 210.67Q153.78 211.13 154.82 211.13Q155.73 211.13 156.45 210.76Q156.54 210.72 156.63 210.66Q156.91 210.49 157.14 210.28Q157.56 209.89 157.83 209.33Q158.25 208.47 158.25 207.37L158.25 206.98Q158.18 205.66 157.53 204.78Q157.4 204.59 157.24 204.43Q156.94 204.11 156.58 203.9Q155.82 203.46 154.81 203.46Q153.94 203.46 153.24 203.81Q153.13 203.87 153.02 203.93Q152.79 204.07 152.59 204.24Q152.11 204.65 151.81 205.27ZM175.47 205.27Q175.04 206.14 175.04 207.23L175.04 207.31Q175.04 208.84 175.77 209.84Q175.87 209.97 175.98 210.09Q176.29 210.44 176.68 210.67Q177.44 211.13 178.48 211.13Q179.39 211.13 180.1 210.76Q180.2 210.72 180.29 210.66Q180.56 210.49 180.8 210.28Q181.22 209.89 181.49 209.33Q181.91 208.47 181.91 207.37L181.91 206.98Q181.84 205.66 181.19 204.78Q181.06 204.59 180.9 204.43Q180.6 204.11 180.24 203.9Q179.48 203.46 178.47 203.46Q177.6 203.46 176.9 203.81Q176.78 203.87 176.68 203.93Q176.45 204.07 176.25 204.24Q175.77 204.65 175.47 205.27ZM192.69 204.45L192.64 203.6L191.07 203.6L191.07 211L192.73 211L192.73 205.73Q192.99 205.25 193.4 205.03Q193.76 204.82 194.23 204.82Q194.92 204.82 195.23 205.16Q195.53 205.5 195.53 206.2L195.53 211L197.19 211L197.19 206.11Q197.17 204.6 196.41 203.96Q195.84 203.46 194.84 203.46Q194.11 203.46 193.53 203.76Q193.06 204.01 192.69 204.45ZM123.7 211L125.37 211L125.37 203.6L123.7 203.6L123.7 211ZM187.38 210.66Q187.61 210.5 187.8 210.27L187.84 211L189.4 211L189.4 203.6L187.74 203.6L187.74 208.91Q187.61 209.18 187.41 209.36Q186.95 209.78 186.11 209.78Q185.63 209.78 185.35 209.54Q184.94 209.2 184.94 208.37L184.94 203.6L183.28 203.6L183.28 208.39Q183.28 209.72 183.9 210.43Q184 210.54 184.11 210.64Q184.71 211.13 185.72 211.13Q186.72 211.13 187.38 210.66ZM133.08 204.97Q133.39 204.8 133.81 204.8Q134.33 204.8 134.68 205.04Q134.79 205.12 134.89 205.22Q135.28 205.65 135.33 206.48L135.33 206.61L132.17 206.61Q132.28 205.75 132.7 205.27Q132.87 205.08 133.08 204.97ZM153.51 209.16Q153.04 208.51 153.04 207.37Q153.04 206.09 153.52 205.44Q153.75 205.13 154.06 204.97Q154.39 204.8 154.81 204.8Q155.24 204.8 155.57 204.97Q155.89 205.14 156.12 205.45Q156.6 206.11 156.6 207.23Q156.6 208.49 156.13 209.15Q155.92 209.45 155.63 209.61Q155.28 209.81 154.82 209.81Q154.35 209.81 153.99 209.6Q153.72 209.44 153.51 209.16ZM177.17 209.16Q176.7 208.51 176.7 207.37Q176.7 206.09 177.18 205.44Q177.41 205.13 177.72 204.97Q178.05 204.8 178.47 204.8Q178.9 204.8 179.23 204.97Q179.54 205.14 179.78 205.45Q180.26 206.11 180.26 207.23Q180.26 208.49 179.79 209.15Q179.58 209.45 179.29 209.61Q178.94 209.81 178.48 209.81Q178.01 209.81 177.65 209.6Q177.38 209.44 177.17 209.16ZM200.67 209.15Q200.23 208.51 200.23 207.39Q200.23 206.1 200.67 205.46Q200.87 205.17 201.14 205.01Q201.47 204.82 201.91 204.82Q202.44 204.82 202.82 205.06Q203.17 205.28 203.39 205.71L203.39 208.87Q203.15 209.33 202.77 209.56Q202.4 209.78 201.9 209.78Q201.46 209.78 201.13 209.59Q200.86 209.43 200.67 209.15Z" fill="#FFFFFF" fill-opacity="1.000000" fill-rule="evenodd"/>
	</g>
	<rect id="Frame 1" rx="4.500000" width="319.000000" height="319.000000" transform="translate(0.500000 0.500000)" stroke="#555555" stroke-opacity="1.000000" stroke-width="1.000000"/>
</svg>
